<?xml version="1.0" encoding="utf-8"?>
<!-- Generator: Adobe Illustrator 17.0.0, SVG Export Plug-In . SVG Version: 6.00 Build 0)  -->
<!DOCTYPE svg PUBLIC "-//W3C//DTD SVG 1.1//EN" "http://www.w3.org/Graphics/SVG/1.1/DTD/svg11.dtd">
<svg version="1.1" id="Layer_1" xmlns="http://www.w3.org/2000/svg" xmlns:xlink="http://www.w3.org/1999/xlink" x="0px" y="0px"
	 width="205.25px" height="190.5px" viewBox="0 0 205.25 190.5" enable-background="new 0 0 205.25 190.5" xml:space="preserve">
<g>
	<path fill="#FF4A6E" d="M173.996,100.145c0.314,0.142,0.582,0.313,0.85,0.472l2.42-5.516c-0.312-0.082-0.629-0.156-0.941-0.302
		c-3.68-1.602-5.359-5.891-3.758-9.584l-13.596-5.928l14.821,20.794C173.855,100.111,173.934,100.111,173.996,100.145
		L173.996,100.145z"/>
	<path fill="#FF4A6E" d="M11.729,104.089l82.438,35.962L43.838,69.399l-1.871-2.623l2.623-1.872c1.827-1.307,2.25-3.851,0.961-5.672
		l-1.871-2.628l2.625-1.871l4.747-3.379l2.623-1.869l1.857,2.625c0.772,1.069,2.012,1.713,3.33,1.713
		c0.833,0,1.651-0.271,2.342-0.756c0.898-0.629,1.481-1.57,1.655-2.641c0.185-1.069-0.065-2.151-0.692-3.034l-1.873-2.623
		l2.625-1.87l4.747-3.382l0.049-0.031L44.341,29.302c-1.194,2.737-3.867,4.371-6.68,4.371c-0.973,0-1.952-0.19-2.908-0.613
		l-2.326,5.344c3.694,1.617,5.375,5.908,3.774,9.59c-1.194,2.747-3.883,4.381-6.7,4.381c-0.973,0-1.946-0.202-2.905-0.613
		l-2.324,5.344c3.693,1.605,5.375,5.895,3.77,9.588c-1.197,2.737-3.884,4.372-6.696,4.372c-0.959,0-1.949-0.19-2.91-0.599
		l-2.326,5.346c3.694,1.601,5.375,5.892,3.774,9.586c-1.194,2.734-3.882,4.369-6.695,4.369c-0.961,0-1.951-0.188-2.908-0.613
		l-2.326,5.344C11.648,96.117,13.345,100.41,11.729,104.089L11.729,104.089z"/>
	<g>
		<circle fill="#FF4A6E" stroke="#FFFFFF" stroke-width="3" stroke-miterlimit="10" cx="49.138" cy="66.148" r="11.5"/>
		
			<line fill="none" stroke="#FFFFFF" stroke-width="2.9522" stroke-linecap="round" stroke-miterlimit="10" x1="33.759" y1="97.186" x2="79.459" y2="67.369"/>
		<circle fill="#FF4A6E" stroke="#FFFFFF" stroke-width="3" stroke-miterlimit="10" cx="63.953" cy="98.348" r="11.5"/>
	</g>
	<path fill="#FF4A6E" d="M63.076,55.693c-1.289,0.91-2.766,1.354-4.214,1.354c-2.277,0-4.526-1.07-5.939-3.066l-4.747,3.379
		c2.326,3.283,1.571,7.825-1.715,10.167l53.444,75.023l7.259,10.187l20.464,28.716c1.272-0.911,2.751-1.353,4.213-1.353
		c2.279,0,4.526,1.069,5.941,3.065c0.188,0.267,0.329,0.55,0.487,0.833l4.902-3.489c-0.22-0.235-0.456-0.456-0.645-0.739
		c-2.344-3.27-1.571-7.826,1.697-10.152c1.287-0.912,2.767-1.352,4.229-1.352c2.277,0,4.512,1.053,5.939,3.049
		c0.188,0.283,0.33,0.564,0.474,0.849l4.92-3.489c-0.236-0.234-0.456-0.472-0.646-0.738c-2.343-3.27-1.572-7.828,1.696-10.153
		c1.289-0.911,2.767-1.353,4.229-1.353c2.263,0,4.511,1.053,5.939,3.049c0.188,0.269,0.33,0.566,0.473,0.85l4.902-3.489
		c-0.22-0.235-0.439-0.471-0.645-0.737c-2.326-3.271-1.571-7.828,1.714-10.153c1.271-0.912,2.75-1.353,4.212-1.353
		c2.277,0,4.525,1.053,5.939,3.049c0.205,0.269,0.33,0.565,0.487,0.85l4.903-3.489c-0.221-0.235-0.455-0.472-0.645-0.737
		c-2.326-3.285-1.572-7.828,1.713-10.154l-16.629-23.342l-1.146-1.619l-0.157-0.219l-4.291-6.021l-2.264-3.159L153.23,76.79
		l-7.264-10.183l-33.054-46.419c-1.272,0.914-2.75,1.352-4.212,1.352c-2.279,0-4.527-1.067-5.941-3.063l-4.747,3.378
		c2.326,3.287,1.57,7.829-1.713,10.171c-1.271,0.91-2.753,1.352-4.212,1.352c-2.279,0-4.527-1.07-5.939-3.067L81.4,33.692
		c1.132,1.602,1.524,3.505,1.255,5.295c-0.157,1.071-0.563,2.093-1.178,3.002c-0.47,0.708-1.052,1.352-1.791,1.871
		c-0.283,0.204-0.613,0.298-0.91,0.456c-1.055,0.55-2.173,0.896-3.303,0.896c-2.279,0-4.527-1.065-5.939-3.05l-4.749,3.38
		C67.116,48.809,66.346,53.354,63.076,55.693L63.076,55.693z"/>
</g>
<g>
	<circle fill="none" stroke="#FFFFFF" stroke-width="3" stroke-miterlimit="10" cx="97.747" cy="53.344" r="11.5"/>
	
		<line fill="none" stroke="#FFFFFF" stroke-width="2.9522" stroke-linecap="round" stroke-miterlimit="10" x1="69.434" y1="73.298" x2="123.818" y2="68.87"/>
	<circle fill="none" stroke="#FFFFFF" stroke-width="3" stroke-miterlimit="10" cx="95.423" cy="88.712" r="11.5"/>
</g>
</svg>
