 <svg
      xmlns="http://www.w3.org/2000/svg" xmlns:xlink="http://www.w3.org/1999/xlink"
      version="1.1"
      id="Layer_1"
      x="0px"
      y="0px"
      width="300px"
      height="200px"
      viewBox="0 0 300 200"
      enable-background="new 0 0 300 200"
    >
      <g transform="matrix(.94 0 0 .94 80 0)">
        <g>
          <path
            fill="#64696D"
            d="M-85.106,0.001h319.149v212.765H-85.106V0.001z"
          />
          <path
            fill="#FFFFFF"
            d="M-85.106,0.001v23.788l283.469,188.978h35.68v-23.788L-49.426,0.001H-85.106z M234.043,0.001v23.787
                L-49.426,212.766h-35.681v-23.787l283.47-188.98h35.68V0.001L234.043,0.001z"
          />
          <path
            fill="#FFFFFF"
            d="M47.873,0.001v212.765h53.19V0.001H47.873z M-85.106,70.922v70.923h319.149V70.922H-85.106z"
          />
          <path
            fill="#64696D"
            d="M-85.106,85.107v42.553h319.149V85.107H-85.106z M58.511,0.001v212.765h31.915V0.001H58.511z
                 M-85.106,212.766l106.384-70.921h23.786l-106.383,70.921L-85.106,212.766L-85.106,212.766z M-85.106,0.001L21.277,70.922H-2.511
                l-82.595-55.064V0.001z M103.871,70.922L210.255,0.001h23.788L127.659,70.922H103.871L103.871,70.922z M234.043,212.766
                l-106.384-70.921h23.787l82.595,55.066v15.858h0.002V212.766L234.043,212.766z"
          />
        </g>
      </g>
    </svg>