<?xml version="1.0" encoding="utf-8"?>
<!-- Generator: Adobe Illustrator 17.0.0, SVG Export Plug-In . SVG Version: 6.00 Build 0)  -->
<!DOCTYPE svg PUBLIC "-//W3C//DTD SVG 1.1//EN" "http://www.w3.org/Graphics/SVG/1.1/DTD/svg11.dtd">
<svg version="1.1" id="Capa_1" xmlns="http://www.w3.org/2000/svg" xmlns:xlink="http://www.w3.org/1999/xlink" x="0px" y="0px"
	 width="632.891px" height="518.078px" viewBox="0 0 632.891 518.078" enable-background="new 0 0 632.891 518.078"
	 xml:space="preserve">
<g>
	<path fill="#FF4A6E" stroke="#FFFFFF" stroke-width="0.8793" stroke-miterlimit="10" d="M154.613,132.871
		c-0.018,0-119.564-0.038-128.078-0.038c0,0-0.048,0-0.058,0c-10.879,0-19.761,9.026-19.732,19.916l0.427,123.317
		c0.048,10.858,8.853,19.877,19.674,19.877c0.029,0,0.058,0,0.078,0c6.118,0,11.587-3.045,15.175-7.476l7.776,120
		c0.688,10.726,9.599,18.792,20.363,18.792h40.568c10.733,0,19.635-8.164,20.344-18.889l7.736-120.253
		c3.607,4.674,9.066,7.815,15.195,7.815c0.018,0,0.029,0,0.077,0c10.821,0,19.626-9.174,19.693-19.955l0.407-123.113
		C174.287,142.093,165.492,132.871,154.613,132.871z"/>
	<circle fill="#FF4A6E" stroke="#FFFFFF" stroke-width="0.8793" stroke-miterlimit="10" cx="90.521" cy="65.171" r="54.542"/>
	<path fill="#FF4A6E" d="M62.743,89.847c2.667,8.818,14.088,15.444,27.778,15.444s25.112-6.626,27.78-15.444H62.743z"/>
</g>
<path fill="#FF4A6E" d="M478.165,0c-79.134,0-143.701,42.048-148.058,94.98c-0.231,2.735-1.334,5.315-3.153,7.377l-22.386,25.099
	c-3.055,3.407-4.003,8.205-2.525,12.516c1.489,4.323,5.183,7.51,9.682,8.326l38.729,7.047c2.459,0.452,4.687,1.599,6.483,3.319
	c26.875,25.805,71.105,42.688,121.237,42.688c81.99,0,148.42-45.069,148.42-100.66C626.585,45.081,560.166,0,478.165,0z"/>
<path fill="#FFFFFF" d="M481.841,45.805c6.454,0,11.702,5.25,11.702,11.702s-5.249,11.702-11.702,11.702
	c-6.452,0-11.702-5.25-11.702-11.702S475.389,45.805,481.841,45.805z M493.782,143.931c0,5.864-4.771,10.635-10.636,10.635
	c-5.863,0-10.635-4.771-10.635-10.635v-50.28h-11.144c-5.08,0-9.197-4.119-9.197-9.198c0-5.08,4.117-9.198,9.197-9.198h21.401
	c0.125-0.003,0.248-0.019,0.375-0.019c5.864,0,10.637,4.772,10.637,10.635L493.782,143.931L493.782,143.931z"/>
<g>
	<path fill="#FF4A6E" stroke="#FFFFFF" stroke-width="5" stroke-miterlimit="10" d="M216.814,156.257
		c-0.02,0-128.129-0.041-137.253-0.041c0,0-0.051,0-0.062,0c-11.659,0-21.176,9.673-21.146,21.343l0.458,132.15
		c0.052,11.638,9.487,21.302,21.083,21.302c0.031,0,0.062,0,0.083,0c6.557,0,12.417-3.263,16.262-8.011l8.333,128.597
		c0.738,11.492,10.287,20.139,21.821,20.139h43.475c11.502,0,21.042-8.749,21.801-20.242l8.291-128.867
		c3.866,5.009,9.716,8.375,16.284,8.375c0.02,0,0.031,0,0.083,0c11.596,0,21.032-9.829,21.104-21.384l0.436-131.933
		C237.897,166.14,228.473,156.257,216.814,156.257z"/>
	<circle fill="#FF4A6E" stroke="#FFFFFF" stroke-width="5" stroke-miterlimit="10" cx="148.131" cy="83.708" r="58.449"/>
	<path fill="#FF4A6E" d="M118.363,110.153c2.858,9.448,15.098,16.55,29.768,16.55c14.671,0,26.912-7.102,29.77-16.55H118.363z"/>
</g>
<g>
	<path fill="#FF4A6E" stroke="#FFFFFF" stroke-width="8" stroke-miterlimit="10" d="M287.575,177.18
		c-0.022,0-135.981-0.044-145.664-0.044c0,0-0.055,0-0.066,0c-12.373,0-22.474,10.267-22.441,22.651l0.485,140.248
		c0.055,12.352,10.068,22.606,22.375,22.606c0.033,0,0.066,0,0.088,0c6.958,0,13.178-3.463,17.258-8.502l8.844,136.478
		c0.783,12.196,10.917,21.372,23.158,21.372h46.139c12.208,0,22.331-9.285,23.136-21.482l8.8-136.764
		c4.102,5.314,10.311,8.888,17.28,8.888c0.022,0,0.033,0,0.088,0c12.307,0,22.32-10.432,22.397-22.694l0.463-140.017
		C309.95,187.667,299.948,177.18,287.575,177.18z"/>
	<circle fill="#FF4A6E" stroke="#FFFFFF" stroke-width="8" stroke-miterlimit="10" cx="214.683" cy="100.186" r="62.03"/>
	<path fill="#FF4A6E" d="M183.09,128.25c3.033,10.027,16.023,17.564,31.592,17.564c15.57,0,28.561-7.538,31.593-17.564H183.09z"/>
</g>
</svg>
